<svg id="color" enable-background="new 0 0 24 24" height="512" viewBox="0 0 24 24" width="512" xmlns="http://www.w3.org/2000/svg"><path d="m12 8.75c-.553 0-1-.447-1-1v-2.75c0-1.654-1.346-3-3-3s-3 1.346-3 3v2.75c0 .553-.447 1-1 1s-1-.447-1-1v-2.75c0-2.757 2.243-5 5-5s5 2.243 5 5v2.75c0 .553-.447 1-1 1z" fill="#90a4ae"/><path d="m13.75 20h-11.5c-1.24 0-2.25-1.01-2.25-2.25v-8.5c0-1.24 1.01-2.25 2.25-2.25h11.5c1.24 0 2.25 1.01 2.25 2.25v8.5c0 1.24-1.01 2.25-2.25 2.25z" fill="#ffc107"/><path d="m8 0c-2.757 0-5 2.243-5 5v2h2v-2c0-1.654 1.346-3 3-3z" fill="#7d8f97"/><path d="m8 7h-3-2-.75c-1.24 0-2.25 1.01-2.25 2.25v8.5c0 1.24 1.01 2.25 2.25 2.25h5.75z" fill="#dea806"/><path d="m17.5 11c-3.584 0-6.5 2.916-6.5 6.5s2.916 6.5 6.5 6.5 6.5-2.916 6.5-6.5-2.916-6.5-6.5-6.5z" fill="#f44336"/><path d="m20 18.5h-5c-.553 0-1-.447-1-1s.447-1 1-1h5c.553 0 1 .447 1 1s-.447 1-1 1z" fill="#fff"/><path d="m17.5 11c-3.584 0-6.5 2.916-6.5 6.5s2.916 6.5 6.5 6.5v-5.5h-2.5c-.553 0-1-.447-1-1s.447-1 1-1h2.5z" fill="#d43a2f"/><path d="m17.5 16.5h-2.5c-.553 0-1 .447-1 1s.447 1 1 1h2.5z" fill="#dedede"/></svg>