<?xml version="1.0" encoding="iso-8859-1"?>
<!-- Generator: Adobe Illustrator 19.0.0, SVG Export Plug-In . SVG Version: 6.00 Build 0)  -->
<svg version="1.1" id="Capa_1" xmlns="http://www.w3.org/2000/svg" xmlns:xlink="http://www.w3.org/1999/xlink" x="0px" y="0px"
	 viewBox="0 0 496 496" style="enable-background:new 0 0 496 496;" xml:space="preserve">
<g>
	<g>
		<path d="M334.888,105.696C321.024,115.056,304.816,120,288,120c-16.816,0-33.024-4.944-46.888-14.296l-8.944,13.264
			C248.68,130.112,267.992,136,288,136c20.016,0,39.328-5.888,55.84-17.04L334.888,105.696z"/>
	</g>
</g>
<g>
	<g>
		<path d="M96,8H48V0H0v153.696l32,72V472c0,13.232,10.768,24,24,24s24-10.768,24-24V222.304L48.752,152H96V8z M64,225.696V472
			c0,4.416-3.592,8-8,8s-8-3.584-8-8V222.304l-32-72V16h16v137.696L64,225.696z M80,136H48v-16h32V136z M80,104H48V88h32V104z
			 M80,72H48V56h32V72z M80,40H48V24h32V40z"/>
	</g>
</g>
<g>
	<g>
		<path d="M471.28,160.912c-2.496-13.872-12.136-25.2-24.992-30.16C438.592,92.432,404.344,64,364.856,64
			c-16.6,0-33.152,5.248-47.864,15.168C308.312,85.032,298.552,88,288,88s-20.312-2.968-28.992-8.832
			C244.296,69.248,227.744,64,211.144,64C165.296,64,128,101.296,128,147.144c0,9.088,0.552,18.232,1.528,27.256
			c-4.864,5.776-8.064,12.88-9.04,20.736C106.12,201.208,96,215.44,96,232s10.12,30.792,24.496,36.864
			C122.928,288.608,139.608,304,160,304c6.592,0,12.72-1.752,18.208-4.592c15.576,24.256,27.08,50.704,34.072,78.68l8.56,34.232
			c2.888,11.592,13.256,19.68,25.192,19.68c14.32,0,25.968-11.648,25.968-25.968V304c0-8.824,7.176-16,16-16c8.824,0,16,7.176,16,16
			v102.032c0,14.32,11.648,25.968,25.968,25.968c11.936,0,22.304-8.088,25.192-19.672l8.56-34.232
			c7.752-31.016,20.912-60.072,39.112-86.352c9.6-13.872,17.744-28.744,24.4-44.224c1.584,0.192,3.136,0.48,4.768,0.48
			c16.56,0,30.792-10.12,36.864-24.496C484.192,221.144,496,207.984,496,192C496,176.864,485.416,164.232,471.28,160.912z M184,264
			c0,13.232-10.768,24-24,24s-24-10.768-24-24v-8c-13.232,0-24-10.768-24-24s10.768-24,24-24v-8c0-13.232,10.768-24,24-24
			s24,10.768,24,24v8c13.232,0,24,10.768,24,24s-10.768,24-24,24V264z M389.672,282.632c-19.296,27.872-33.248,58.688-41.48,91.584
			l-8.56,34.232c-1.104,4.448-5.08,7.552-9.664,7.552c-5.496,0-9.968-4.472-9.968-9.968V304c0-17.648-14.352-32-32-32
			s-32,14.352-32,32v102.032c0,5.496-4.472,9.968-9.968,9.968c-4.584,0-8.56-3.104-9.672-7.544l-8.56-34.232
			c-7.56-30.256-20.024-58.84-37.04-84.968c4.696-5.712,7.792-12.68,8.744-20.384C213.88,262.792,224,248.56,224,232
			s-10.12-30.792-24.496-36.864C197.072,175.392,180.392,160,160,160c-5.464,0-10.664,1.112-15.416,3.104
			c-0.352-5.32-0.584-10.648-0.584-15.96C144,110.12,174.12,80,211.144,80c13.4,0,26.856,4.296,38.92,12.44
			C261.44,100.112,274.2,104,288,104s26.56-3.888,37.944-11.56C338,84.296,351.456,80,364.856,80
			c29.928,0,56.12,20.224,64.376,48.28c-18.36,1.28-33.312,14.864-36.52,32.632C378.584,164.232,368,176.864,368,192
			c0,15.984,11.808,29.144,27.136,31.504c3.384,8.024,9.408,14.576,16.864,18.928C405.856,256.488,398.416,270.008,389.672,282.632z
			 M464,208h-8c0,13.232-10.768,24-24,24s-24-10.768-24-24h-8c-8.824,0-16-7.176-16-16c0-8.824,7.176-16,16-16
			c4.544,0,8.896,1.944,11.92,5.336l11.928-10.672c-4-4.464-9.192-7.528-14.832-9.192C411.88,151.424,421.048,144,432,144
			c10.944,0,20.096,7.4,22.968,17.432c-4.504,1.328-8.736,3.528-12.304,6.72l10.664,11.92C456.272,177.448,460.056,176,464,176
			c8.824,0,16,7.176,16,16C480,200.824,472.824,208,464,208z"/>
	</g>
</g>
<g>
	<g>
		<path d="M424,328c-13.232,0-24,10.768-24,24s10.768,24,24,24s24-10.768,24-24S437.232,328,424,328z M424,360c-4.408,0-8-3.584-8-8
			c0-4.416,3.592-8,8-8c4.408,0,8,3.584,8,8C432,356.416,428.408,360,424,360z"/>
	</g>
</g>
<g>
	<g>
		<path d="M160,392c-13.232,0-24,10.768-24,24s10.768,24,24,24s24-10.768,24-24S173.232,392,160,392z M160,424c-4.408,0-8-3.584-8-8
			c0-4.416,3.592-8,8-8s8,3.584,8,8C168,420.416,164.408,424,160,424z"/>
	</g>
</g>
<g>
	<g>
		<path d="M472,0c-13.232,0-24,10.768-24,24s10.768,24,24,24s24-10.768,24-24S485.232,0,472,0z M472,32c-4.408,0-8-3.584-8-8
			s3.592-8,8-8c4.408,0,8,3.584,8,8S476.408,32,472,32z"/>
	</g>
</g>
<g>
	<g>
		<rect x="144" y="32" width="16" height="16"/>
	</g>
</g>
<g>
	<g>
		<rect x="296" width="16" height="16"/>
	</g>
</g>
<g>
	<g>
		<rect x="128" y="224" width="16" height="16"/>
	</g>
</g>
<g>
	<g>
		<rect x="176" y="224" width="16" height="16"/>
	</g>
</g>
<g>
	<g>
		<rect x="480" y="280" width="16" height="16"/>
	</g>
</g>
<g>
	<g>
		<rect x="120" y="328" width="16" height="16"/>
	</g>
</g>
<g>
	<g>
		<rect x="424" y="200" width="16" height="16"/>
	</g>
</g>
<g>
</g>
<g>
</g>
<g>
</g>
<g>
</g>
<g>
</g>
<g>
</g>
<g>
</g>
<g>
</g>
<g>
</g>
<g>
</g>
<g>
</g>
<g>
</g>
<g>
</g>
<g>
</g>
<g>
</g>
</svg>
